<?xml version="1.0" encoding="iso-8859-1"?>
<!-- Uploaded to: SVG Repo, www.svgrepo.com, Generator: SVG Repo Mixer Tools -->
<svg version="1.1" id="Layer_1" xmlns="http://www.w3.org/2000/svg" xmlns:xlink="http://www.w3.org/1999/xlink" 
	 width="20px" height="20px" viewBox="0 0 512 512" xml:space="preserve">
<g>
	<polygon style="fill:#CFF09E;" points="431.485,15.058 431.485,260.04 80.515,260.04 80.515,15.058 26.959,15.058 26.959,496.942 
		80.515,496.942 80.515,379.968 431.485,379.968 431.485,496.942 485.04,496.942 485.04,15.058 	"/>
	<rect x="163.422" y="379.97" style="fill:#CFF09E;" width="97.873" height="116.969"/>
</g>
<path style="fill:#507C5C;" d="M485.04,0h-53.555H195.688c-8.316,0-15.058,6.741-15.058,15.058s6.741,15.058,15.058,15.058h220.739
	v214.866H95.573V15.058C95.573,6.741,88.832,0,80.515,0H26.959c-8.316,0-15.058,6.741-15.058,15.058v481.884
	c0,8.316,6.741,15.058,15.058,15.058H80.5c0.005,0,0.009,0,0.015,0h82.907h97.873h92.942c8.316,0,15.058-6.741,15.058-15.058
	s-6.741-15.058-15.058-15.058h-77.884v-86.86h140.076v101.916c0,8.316,6.741,15.058,15.058,15.058h53.555
	c8.316,0,15.058-6.741,15.058-15.058V15.058C500.098,6.741,493.356,0,485.04,0z M95.573,481.884v-86.86h52.791v86.86H95.573z
	 M246.236,481.884h-67.757v-86.86h67.757V481.884z M469.982,481.884h-23.439V379.968c0-8.316-6.741-15.058-15.058-15.058H261.294
	h-97.873H80.515c-8.316,0-15.058,6.741-15.058,15.058v101.916H42.017V30.116h23.439V260.04c0,8.316,6.741,15.058,15.058,15.058
	h350.97c8.316,0,15.058-6.741,15.058-15.058V30.116h23.439v451.769H469.982z"/>
</svg>